# xmcd
#
# Track frame offsets:
#	150
#	17062
#	30855
#	46202
#	64400
#	84652
#	99147
#	114402
#	125687
#	142937
#	155887
#	173257
#	188327
#	205650
#	218165
#	235837
#
# Disc length: 3363 seconds
#
# Revision: 0
# Processed by: cddbd v1.4PL0 Copyright (c) Steve Scherf et al.
# Submitted via: audiograbber 1.81.02
#
DISCID=c50d2110
DTITLE=Various Artist - 90's Hot Country Vol 2
DYEAR=1900
DGENRE=Country
TTITLE0=Vince Gill - You Better Think Twice
TTITLE1=Clay Walker - Then What
TTITLE2=Tanya Tucker - Hangin' In
TTITLE3=Trace Adkins - (This Ain't) No Thinkin' Thing
TTITLE4=Steve Wariner - Two Teardrops
TTITLE5=Mindy McCready - Guys Do It All The Time
TTITLE6=Dan Seals - It's What I Do
TTITLE7=Shenandoah - Darned If I Don't (Danged If I Do)
TTITLE8=Collin Raye - On The Verge
TTITLE9=Patty Loveless - She Drew A Broken Heart
TTITLE10=Dan Seals - Love On Arrival
TTITLE11=Lorria Morgan - I Didn't Know My Own Strength
TTITLE12=Toby Keith - Does That Blue Moon Ever Shine On You
TTITLE13=Lee Greenwood - Holdin' A Good Hand
TTITLE14=John Berry - Your Love Amazes Me
TTITLE15=Eddie Rabbit - On Second Thought
EXTD=
EXTT0=
EXTT1=
EXTT2=
EXTT3=
EXTT4=
EXTT5=
EXTT6=
EXTT7=
EXTT8=
EXTT9=
EXTT10=
EXTT11=
EXTT12=
EXTT13=
EXTT14=
EXTT15=
PLAYORDER=
